<?xml version="1.0" encoding="UTF-8" standalone="no"?><!DOCTYPE svg PUBLIC "-//W3C//DTD SVG 1.1//EN" "http://www.w3.org/Graphics/SVG/1.1/DTD/svg11.dtd"><svg width="100%" height="100%" viewBox="0 0 345 371" version="1.1" xmlns="http://www.w3.org/2000/svg" xmlns:xlink="http://www.w3.org/1999/xlink" xml:space="preserve" xmlns:serif="http://www.serif.com/" style="fill-rule:evenodd;clip-rule:evenodd;stroke-linecap:round;stroke-linejoin:round;stroke-miterlimit:1.5;"><g><rect x="235.12" y="158.102" width="76.347" height="24.501"/><rect x="174.646" y="34.018" width="122.672" height="38.804" style="fill:#6298b2;"/><rect x="228.444" y="73.194" width="83.441" height="75.194"/><rect x="289.821" y="57.404" width="22.013" height="25.021"/><path d="M206.799,188.199l55.784,-41.455l10.391,-0.985l7.22,2.297l9.11,-6.453l12.469,-9.516l3.281,2.297l0.329,26.141l-7.329,1.86l-5.578,-1.313l-5.141,3.063l-4.922,-2.188l-6.126,5.251l-6.781,2.297l-9.407,1.093l-4.594,0.875l-2.844,2.188l-4.594,-0.109l-1.531,-1.532l-7.219,2.516l-3.172,4.047l5.797,-1.422l3.61,-1.531l3.39,0.656l4.704,0.328l3.719,-3.062l8.641,-0.766l1.531,2.844l3.063,0.109l2.515,-3.062l4.047,-3.501l3.719,-2.297l5.798,-0.765l5.14,-0.985l4.048,1.532l4.922,-1.641l3.062,1.203l-0.109,21.329l-96.943,0.657Z" style="fill:#a2a070;stroke:#000;stroke-width:1.5px;"/><path d="M175.382,175.588l2.625,-0.219l12.579,-7.001l10.719,-14.219l8.313,-12.251l6.891,-9.516l11.813,-11.703l9.407,-7.22l-0.328,11.485l3.172,-2.297l4.047,-4.922l5.469,-0.437l2.953,13.235l2.625,3.172l2.735,-1.86l3.503,-15.073l5.67,0l3.15,-11.69l7.91,-2.94l4.201,0.07l2.24,8.47l3.22,4.62l-0.969,8.475l-1.88,6.836l3.418,2.393l-0,8.375l-8.39,6.711l-7.525,-2.537l-10.238,0.875l-8.138,5.163l-6.606,4.67l-9.381,7.21l-7.665,6.102l-7.656,5.579l-11.704,8.641l-6.672,5.469l-29.642,0.547l0.134,-14.213Z" style="fill:#ce9c93;stroke:#000;stroke-width:1.5px;"/><path d="M176.408,153.545l8.82,-1.932l15.802,-19.185l6.16,-7.49l7.63,-5.951l10.128,-6.535l8.203,-5.982l5.127,-2.905l1.063,7.91l-3.85,2.975l-11.9,9.625l-7.176,7.701l-6.475,8.925l-6.038,8.226l-4.2,6.387l-4.55,6.126l-5.338,7l-5.255,3.068l-4.425,3.528l-4.2,0.168l-1.904,-21.729l2.378,0.07Z" style="fill:#6298b2;stroke:#000;stroke-width:1.5px;"/><path d="M176.543,121.153l7.35,-3.741l4.331,-3.544l38.554,-15.757l6.46,-4.922l3.076,1.026l2.051,4.204l0.41,4.307l-6.255,3.794l-10.357,7.486l-11.177,7.28l-6.666,6.255l-5.742,7.794l-6.871,9.844l-6.562,6.358l-9.742,1.743l-1.128,-31.891l2.268,-0.236Z" style="fill:#e7c993;stroke:#000;stroke-width:1.5px;"/><rect x="38.28" y="35.371" width="133.36" height="153.957" style="fill:#d6d7d2;"/><path d="M177.485,47.268l12.177,-0.32l15.542,13.939l8.652,4.006l9.934,7.691l6.089,-0.16l8.332,-7.851l10.895,-6.57l5.448,-3.044l9.132,3.205l6.249,-1.122l4.486,-8.171l8.172,-5.769l10.094,-4.326l7.05,-2.563l6.569,-0l-0.48,28.52l-12.658,7.53l-9.934,9.614l-5.288,-0.32l-6.248,-8.172l-13.78,-0.481l-8.652,11.216l-5.127,-2.884l-4.166,-3.365l-3.044,4.807l-5.929,-0.641l-0.961,-6.569l-1.442,10.415l4.326,6.409l-4.807,4.806l-14.901,7.05l-16.823,6.089l-8.332,3.525l-8.011,5.928l-2.884,1.122l-1.282,0.16l-1.282,-73.864l2.884,0.16Z" style="fill:#ce9c93;stroke:#000;stroke-width:1.5px;"/></g><g><rect x="41.491" y="197.111" width="37.454" height="52.499" style="fill:#004d98;"/><rect x="54.59" y="248.111" width="24.355" height="21.207" style="fill:#004d98;"/><rect x="65.263" y="268.403" width="13.682" height="14.415" style="fill:#004d98;"/><rect x="78.991" y="197.111" width="37.454" height="97.557" style="fill:#a50044;"/><rect x="92.702" y="293.253" width="23.743" height="15.203" style="fill:#a50044;"/><rect x="227.702" y="293.253" width="23.743" height="15.203" style="fill:#a50044;"/><rect x="116.491" y="197.111" width="37.454" height="123.27" style="fill:#004d98;"/><rect x="153.991" y="197.111" width="37.454" height="134.247" style="fill:#a50044;"/><rect x="191.491" y="197.111" width="37.454" height="123.471" style="fill:#004d98;"/><rect x="228.991" y="197.111" width="37.454" height="100.01" style="fill:#a50044;"/><rect x="266.491" y="197.111" width="37.454" height="50.559" style="fill:#004d98;"/><rect x="266.491" y="247.028" width="15.039" height="34.741" style="fill:#004d98;"/><rect x="280.878" y="247.426" width="11.462" height="16.697" style="fill:#004d98;"/></g><g><rect x="77.597" y="197.021" width="3.015" height="87.542"/><rect x="265.097" y="197.021" width="3.015" height="87.542"/><rect x="115.097" y="197.021" width="3.015" height="113.74"/><rect x="227.597" y="197.021" width="3.015" height="113.74"/><rect x="152.597" y="197.021" width="3.015" height="125.869"/><rect x="188.597" y="197.021" width="3.015" height="125.869"/></g><g><path d="M29.207,26.533l2.384,194.944c0,0 21.369,88.534 108.557,105.308" style="fill:none;stroke:#000;stroke-width:1.5px;"/><path d="M140.148,326.785c-0,-0 28.01,7.45 32.405,16.078" style="fill:none;stroke:#000;stroke-width:1.5px;"/><rect x="168.871" y="337.868" width="7.308" height="1.751"/><path d="M204.902,326.785c-0,-0 -28.01,7.45 -32.406,16.078" style="fill:none;stroke:#000;stroke-width:1.5px;"/><path d="M315.648,26.533l-2.385,194.944c-0,0 -21.369,88.534 -108.556,105.308" style="fill:none;stroke:#000;stroke-width:1.5px;"/><path d="M29.207,26.533l286.441,0" style="fill:none;stroke:#000;stroke-width:1.5px;"/><path d="M38.776,35.744l2.226,182.653c-0,0 19.945,82.953 101.321,98.669" style="fill:none;stroke:#000;stroke-width:1.5px;"/><path d="M142.323,317.066c0,-0 26.143,6.981 30.246,15.065" style="fill:none;stroke:#000;stroke-width:1.5px;"/><path d="M202.761,317.066c0,-0 -26.143,6.981 -30.245,15.065" style="fill:none;stroke:#000;stroke-width:1.5px;"/><path d="M306.126,35.744l-2.226,182.653c0,0 -19.945,82.953 -101.321,98.669" style="fill:none;stroke:#000;stroke-width:1.5px;"/><path d="M38.776,35.744l267.35,-0" style="fill:none;stroke:#000;stroke-width:1.5px;"/><rect x="40.695" y="187.806" width="263.201" height="9.439"/><path d="M167.576,35.384l9.439,-0l0,161.39l-9.439,0l0,-161.39Z"/><rect x="29.304" y="25.877" width="286.483" height="9.37"/><path d="M38.839,34.813l2.322,187.565l-9.792,0.121l-2.322,-187.565l9.792,-0.121Z"/><path d="M305.869,34.813l-2.322,187.565l9.792,0.121l2.322,-187.565l-9.792,-0.121Z"/></g><g><path d="M40.83,218.878l7.566,20.488l-8.824,3.259l-7.566,-20.488l8.824,-3.259Z"/><path d="M47.511,237.77l11.283,21.668l-8.262,4.302l-11.283,-21.668l8.262,-4.302Z"/><path d="M56.779,256.747l18.775,23.811l-7.56,5.961l-18.775,-23.811l7.56,-5.961Z"/><path d="M72.13,278.102l23.041,19.713l-6.258,7.315l-23.041,-19.713l6.258,-7.315Z"/><path d="M93.201,296.434l26.361,14.984l-4.757,8.37l-26.361,-14.984l4.757,-8.37Z"/><path d="M116.866,310.266l29.168,8.289l-2.632,9.26l-29.167,-8.289l2.631,-9.26Z"/><path d="M142.783,317.232l21.127,7.781l-3.327,9.034l-21.127,-7.781l3.327,-9.034Z"/><path d="M303.648,219.208l-7.566,20.488l8.824,3.259l7.566,-20.488l-8.824,-3.259Z"/><path d="M296.968,238.1l-11.283,21.668l8.261,4.302l11.283,-21.668l-8.261,-4.302Z"/><path d="M287.7,257.077l-18.776,23.811l7.56,5.961l18.775,-23.811l-7.559,-5.961Z"/><path d="M272.348,278.432l-23.041,19.712l6.258,7.316l23.041,-19.713l-6.258,-7.315Z"/><path d="M251.278,296.764l-26.362,14.984l4.757,8.37l26.362,-14.984l-4.757,-8.37Z"/><path d="M227.612,310.596l-29.168,8.288l2.632,9.261l29.168,-8.289l-2.632,-9.26Z"/><path d="M201.695,317.562l-21.127,7.781l3.327,9.034l21.127,-7.781l-3.327,-9.034Z"/><rect x="224.511" y="310.13" width="3.764" height="3.001"/><path d="M312.358,224.812l-6.69,17.355l-3.634,-1.401l6.69,-17.355l3.634,1.401Z"/><path d="M163.374,325.502l8.939,4.888l-3.982,7.282l-8.939,-4.888l3.982,-7.282Z"/><path d="M181.831,325.502l-8.939,4.888l3.982,7.282l8.939,-4.888l-3.982,-7.282Z"/><rect x="170.882" y="331.593" width="3.355" height="10.064"/><rect x="167.444" y="332.593" width="9.731" height="5.355"/></g><g><path d="M48.875,171.802l5.123,2.174l15.059,-0l8.538,-0.156l6.521,-1.086l3.26,-3.105l-8.383,0.621l-3.571,-3.726l-3.105,-3.881l0.31,-7.452l0.932,-14.749l2.329,-13.506l-0.621,-8.228l-1.553,-3.571l-0.621,-10.712l6.055,-7.607l4.191,-6.676l7.297,-1.863l0,-3.881l-9.47,-1.242l-8.228,-0.621c-0,0 0.05,-5.339 -1.242,-6.52c-1.293,-1.181 -3.713,-1.485 -6.513,-0.566c-2.8,0.918 -2.802,6.62 -2.802,6.62l-18.629,0.621l-0,7.142l11.488,4.502l6.21,9.936l0.31,8.383l-5.589,12.42l2.639,11.022l3.105,8.849l0.311,12.575l-2.484,9.005l-10.867,5.278Z" style="stroke:#000;stroke-width:1.5px;"/><path d="M58.443,91.044l5.487,0.104l3.126,5.105l-6.321,1.979l-2.292,-7.188Z" style="fill:#d6d7d2;stroke:#000;stroke-width:1.5px;"/><path d="M78.395,91.193l-5.487,0.104l-3.125,5.105l6.32,1.98l2.292,-7.189Z" style="fill:#d6d7d2;stroke:#000;stroke-width:1.5px;"/><path d="M115.262,170.854l10.692,-3.43l2.717,-4.27l0.582,-5.433l-2.522,-3.299l-1.359,-22.123l0,-9.121l-3.056,-9.356l-0.894,-5.763l-0.099,-7.948l-0.696,-3.577l1.888,-2.584l2.782,-2.682l3.775,-1.292l0,-2.981l-0.695,-3.378l-0.298,-3.974l1.689,-3.577l2.385,-2.186l3.378,-0.298l3.477,1.292l2.087,1.888l0.497,4.173l-1.491,3.775l0.1,4.968l2.98,4.173l3.875,-0.695l1.987,-3.975l4.173,-1.987l3.081,1.888l0.596,4.471l-3.975,5.564l1.59,4.372l1.292,4.372l-4.273,4.272l2.683,5.067l0.199,5.962l-5.862,7.352l-0.497,13.314l1.689,20.468l5.465,5.564l6.16,-0.696l-4.571,4.472l-34.775,0.496l-6.756,-3.278Z"/><path d="M115.262,170.854l6.756,3.278l34.775,-0.496l4.571,-4.472l-6.16,0.696l-5.465,-5.564l-1.689,-20.468l0.497,-13.314l5.862,-7.352l-0.199,-5.962l-2.683,-5.067l4.273,-4.272l-1.292,-4.372l-1.59,-4.372l3.975,-5.564l-0.596,-4.471l-3.081,-1.888l-4.173,1.987l-1.987,3.975l-3.875,0.695l-2.98,-4.173l-0.1,-4.968l1.491,-3.775l-0.497,-4.173l-2.087,-1.888l-3.477,-1.292l-3.378,0.298l-2.385,2.186l-1.689,3.577l0.298,3.974l0.695,3.378l0,2.981l-3.775,1.292l-2.782,2.682l-1.888,2.584l0.696,3.577l0.099,7.948l0.894,5.763l3.056,9.356l0,9.121l1.359,22.123l2.522,3.299l-0.582,5.433l-2.717,4.27l-10.692,3.43Z" style="fill:none;stroke:#000;stroke-width:1.5px;"/><path d="M98.254,59.066l-1.356,1.549l-0.596,2.583l0.696,2.584l1.987,2.484l2.782,1.689l4.074,-0.497l2.086,-1.987l0.398,-2.782l-0,-2.981l-1.292,-2.285l-5.067,-2.385l-3.279,-0.298l-0.696,-6.061l-7.054,-1.391l-5.564,-1.291l-6.061,0.596l-5.961,1.689l-10.234,1.59l-10.731,1.887l2.186,-4.173l8.744,-3.676l13.801,-1.59l9.539,0.299l5.067,0.596l7.154,0.795l5.266,-3.478l5.266,3.279l4.67,0.894l6.359,-1.49l9.14,-0.596l14.407,0.596l8.645,0.795l3.278,1.589l-2.682,1.789l-8.446,0.099l-5.663,-1.689l-6.657,-0.795l-8.247,0.298l-4.372,1.292l-6.657,2.186l-4.272,3.378l0.199,2.981l2.384,3.974l4.074,-0.199l4.769,-1.888l7.75,-1.092l7.353,0.198l8.644,0.596l6.458,2.683l3.08,2.683l-1.888,0.894l-6.16,-1.789l-6.028,-1.689l-15.401,0.497l-6.061,1.292l-5.862,5.465l-3.577,9.836l-1.689,14.308l0.199,24.839l2.881,18.481l2.087,10.73l2.285,2.782l-1.192,1.59l-4.273,0.695l-1.291,3.875l1.987,2.981l6.955,1.292l-0.398,3.775l-29.708,0l0.275,-4.272l10.134,-1.093l0.299,-5.266l-9.042,-0.199l2.881,-6.458l4.273,-11.625l1.589,-10.432l1.59,-14.507l0,-9.439l-0.894,-8.544l0.497,-6.061l-1.391,-6.955l-0.199,-9.141l-4.769,-4.571l-6.558,-1.391l-6.458,-1.192l-9.34,0.894l-6.955,1.59l-7.849,3.875l-4.968,-1.192l2.385,-2.981l9.339,-4.272l9.539,-2.782l10.83,0.298l9.836,2.384l4.074,-0.099l2.647,-1.45Z"/><path d="M86.489,163.947l29.708,0l0.398,-3.775l-6.955,-1.292l-1.987,-2.981l1.291,-3.875l4.273,-0.695l1.192,-1.59l-2.285,-2.782l-2.087,-10.73l-2.881,-18.481l-0.199,-24.839l1.689,-14.308l3.577,-9.836l5.862,-5.465l6.061,-1.292l15.401,-0.497l6.028,1.689l6.16,1.789l1.888,-0.894l-3.08,-2.683l-6.458,-2.683l-8.644,-0.596l-7.353,-0.198l-7.75,1.092l-4.769,1.888l-4.074,0.199l-2.384,-3.974l-0.199,-2.981l4.272,-3.378l6.657,-2.186l4.372,-1.292l8.247,-0.298l6.657,0.795l5.663,1.689l8.446,-0.099l2.682,-1.789l-3.278,-1.589l-8.645,-0.795l-14.407,-0.596l-9.14,0.596l-6.359,1.49l-4.67,-0.894l-5.266,-3.279l-5.266,3.478l-7.154,-0.795l-5.067,-0.596l-9.539,-0.299l-13.801,1.59l-8.744,3.676l-2.186,4.173l10.731,-1.887l10.234,-1.59l5.961,-1.689l6.061,-0.596l5.564,1.291l7.054,1.391l0.696,6.061l3.279,0.298l5.067,2.385l1.292,2.285l-0,2.981l-0.398,2.782l-2.086,1.987l-4.074,0.497l-2.782,-1.689l-1.987,-2.484l-0.696,-2.584l0.596,-2.583l1.391,-1.59l3.677,-1.987l-6.359,3.478l-4.074,0.099l-9.836,-2.384l-10.83,-0.298l-9.539,2.782l-9.339,4.272l-2.385,2.981l4.968,1.192l7.849,-3.875l6.955,-1.59l9.34,-0.894l6.458,1.192l6.558,1.391l4.769,4.571l0.199,9.141l1.391,6.955l-0.497,6.061l0.894,8.544l0,9.439l-1.59,14.507l-1.589,10.432l-4.273,11.625l-2.881,6.458l9.042,0.199l-0.299,5.266l-10.134,1.093l-0.275,4.272" style="fill:none;stroke:#000;stroke-width:1.5px;"/><path d="M97.149,59.672l1.904,-2.728" style="fill:none;stroke:#000;stroke-width:1.5px;"/></g></svg>